<svg width="303.9688232421875px" height="64px" xmlns="http://www.w3.org/2000/svg" viewBox="98.01558837890624 23 303.9688232421875 104" style="background: rgb(0, 129, 105);" preserveAspectRatio="xMidYMid"><defs><filter id="editing-vintage" x="-100%" y="-100%" width="300%" height="300%"><feConvolveMatrix in="SourceGraphic" result="extrude" order="1,1" divisor="1" kernelMatrix="1"> </feConvolveMatrix><feFlood flood-color="#0dc740" result="flood-extrude"></feFlood><feComposite operator="in" in="flood-extrude" in2="extrude" result="extrude-color"></feComposite><feOffset dx="1" dy="1" in="extrude-color" result="extrude-offset"></feOffset><feColorMatrix in="SourceGraphic" result="stroke" type="matrix" values="0 0 0 0 0 0 0 0 0 0 0 0 0 0 0 0 1 0 0 0 "></feColorMatrix><feColorMatrix in="SourceGraphic" result="fill" type="matrix" values="0 0 0 0 0 0 0 0 0 0 0 0 0 0 0 1 0 0 1 0 "></feColorMatrix><feConvolveMatrix in="stroke" result="inner-shadow" order="5,5" divisor="1" kernelMatrix="1 0 0 0 0 0 1 0 0 0 0 0 1 0 0 0 0 0 1 0 0 0 0 0 1 "></feConvolveMatrix><feOffset dx="1" dy="1" in="inner-shadow" result="offset"></feOffset><feComposite operator="in" in="offset" in2="SourceAlpha" result="comp"></feComposite><feFlood flood-color="#4ba761" result="flood3"></feFlood><feComposite operator="in" in="flood3" in2="comp" result="comp2"></feComposite><feColorMatrix in="comp2" result="comp3" type="matrix" values="1 0 0 0 0 0 1 0 0 0 0 0 1 0 0 0 0 0 0.5 0 "></feColorMatrix><feFlood flood-color="#a3a506" result="flood1"></feFlood><feComposite operator="in" in="flood1" in2="fill" result="fill2"></feComposite><feFlood flood-color="#fff" result="flood2"></feFlood><feComposite operator="in" in="flood2" in2="stroke" result="stroke2"></feComposite><feMerge result="obj"><feMergeNode in="extrude-offset"></feMergeNode><feMergeNode in="fill2"></feMergeNode><feMergeNode in="comp3"></feMergeNode></feMerge><feConvolveMatrix in="SourceAlpha" result="shadow" order="1,1" divisor="1" kernelMatrix="1"></feConvolveMatrix><feOffset dx="3" dy="3" in="shadow" result="shadow-offset"></feOffset><feFlood flood-color="#28fb33" result="flood-shadow"></feFlood><feComposite operator="in" in="flood-shadow" in2="shadow-offset" result="shadow-color"></feComposite><feMerge><feMergeNode in="shadow-color"></feMergeNode><feMergeNode in="obj"></feMergeNode></feMerge></filter></defs><g transform="translate(-1,-1)"><g filter="url(#editing-vintage)"><g transform="translate(145.6899801492691, 93.13500213623047)"><path d="M14.85 0.63L14.85 0.63Q10.53 0.63 6.68-0.11L6.68-0.11L6.68-0.11Q2.83-0.85 0.77-1.80L0.77-1.80L0.77-10.71L10.66-10.71L10.66-10.71Q10.66-9.31 11.29-8.69L11.29-8.69L11.29-8.69Q11.92-8.05 13.59-8.05L13.59-8.05L13.59-8.05Q14.98-8.05 15.59-8.48L15.59-8.48L15.59-8.48Q16.20-8.91 16.20-9.76L16.20-9.76L16.20-9.76Q16.20-10.48 15.62-11.00L15.62-11.00L15.62-11.00Q15.03-11.52 13.59-12.06L13.59-12.06L9.72-13.41L9.72-13.41Q4.72-15.30 2.54-17.86L2.54-17.86L2.54-17.86Q0.36-20.43 0.36-24.79L0.36-24.79L0.36-24.79Q0.36-30.11 3.85-32.87L3.85-32.87L3.85-32.87Q7.33-35.64 15.48-35.64L15.48-35.64L15.48-35.64Q19.39-35.64 22.84-34.85L22.84-34.85L22.84-34.85Q26.28-34.06 28.39-32.76L28.39-32.76L28.39-24.70L19.39-24.70L19.39-24.70Q19.39-26.95 16.61-26.95L16.61-26.95L16.61-26.95Q15.25-26.95 14.69-26.62L14.69-26.62L14.69-26.62Q14.13-26.28 14.13-25.43L14.13-25.43L14.13-25.43Q14.13-24.66 14.78-24.21L14.78-24.21L14.78-24.21Q15.43-23.76 16.92-23.27L16.92-23.27L20.84-21.91L20.84-21.91Q25.61-20.29 27.79-17.71L27.79-17.71L27.79-17.71Q29.97-15.12 29.97-10.93L29.97-10.93L29.97-10.93Q29.97-5.22 26.12-2.29L26.12-2.29L26.12-2.29Q22.27 0.63 14.85 0.63L14.85 0.63ZM64.80-35.01L64.80-24.12L57.06-24.12L57.06-27.63L54.18-27.63L54.18-7.38L57.33-7.38L57.33 0L38.43 0L38.43-7.38L41.58-7.38L41.58-27.63L38.70-27.63L38.70-24.12L30.96-24.12L30.96-35.01L64.80-35.01ZM66.33 0L66.33-7.38L68.58-7.38L68.58-27.63L66.33-27.63L66.33-35.01L86.99-35.01L86.99-35.01Q92.79-35.01 95.85-32.63L95.85-32.63L95.85-32.63Q98.91-30.24 98.91-24.88L98.91-24.88L98.91-24.88Q98.91-21.87 97.70-19.66L97.70-19.66L97.70-19.66Q96.48-17.46 94.23-16.61L94.23-16.61L94.28-16.16L94.28-16.16Q98.59-15.48 98.59-10.84L98.59-10.84L98.59-7.38L100.71-7.38L100.71 0L86.45 0L86.45-10.57L86.45-10.57Q86.45-12.33 85.93-13.23L85.93-13.23L85.93-13.23Q85.41-14.13 84.31-14.45L84.31-14.45L84.31-14.45Q83.21-14.76 81.18-14.76L81.18-14.76L81.18-7.38L84.15-7.38L84.15 0L66.33 0ZM81.18-20.25L83.61-20.25L83.61-20.25Q84.92-20.25 85.57-20.95L85.57-20.95L85.57-20.95Q86.22-21.64 86.22-23.13L86.22-23.13L86.22-24.75L86.22-24.75Q86.22-26.23 85.57-26.93L85.57-26.93L85.57-26.93Q84.92-27.63 83.61-27.63L83.61-27.63L81.18-27.63L81.18-20.25ZM127.76-35.01L135.36-7.38L137.16-7.38L137.16 0L119.52 0L119.52-7.38L122.22-7.38L121.50-10.98L115.38-10.98L114.66-7.38L117.36-7.38L117.36 0L101.97 0L101.97-7.38L103.77-7.38L111.38-35.01L127.76-35.01ZM118.22-24.70L116.37-15.75L120.51-15.75L118.67-24.70L118.22-24.70ZM138.60 0L138.60-7.38L140.85-7.38L140.85-27.58L138.60-27.58L138.60-35.01L156.87-35.01L156.87-35.01Q164.38-35.01 168.82-30.89L168.82-30.89L168.82-30.89Q173.25-26.77 173.25-17.50L173.25-17.50L173.25-17.50Q173.25-8.23 168.82-4.12L168.82-4.12L168.82-4.12Q164.38 0 156.87 0L156.87 0L138.60 0ZM153.45-7.38L156.06-7.38L156.06-7.38Q157.59-7.38 158.35-8.19L158.35-8.19L158.35-8.19Q159.12-9 159.12-10.71L159.12-10.71L159.12-24.30L159.12-24.30Q159.12-27.63 156.06-27.63L156.06-27.63L153.45-27.63L153.45-7.38ZM198.85-35.01L206.46-7.38L208.26-7.38L208.26 0L190.62 0L190.62-7.38L193.32-7.38L192.60-10.98L186.48-10.98L185.76-7.38L188.46-7.38L188.46 0L173.07 0L173.07-7.38L174.87-7.38L182.47-35.01L198.85-35.01ZM189.31-24.70L187.47-15.75L191.61-15.75L189.76-24.70L189.31-24.70Z" fill="#f00" stroke="#0f0" stroke-width="1.8"></path></g></g><g><g transform="translate(145.6900259256363, 93.1350040435791)"><path d="M14.85 0.63L14.85 0.63Q10.53 0.63 6.68-0.11L6.68-0.11L6.68-0.11Q2.83-0.85 0.77-1.80L0.77-1.80L0.77-10.71L10.66-10.71L10.66-10.71Q10.66-9.31 11.29-8.69L11.29-8.69L11.29-8.69Q11.92-8.05 13.59-8.05L13.59-8.05L13.59-8.05Q14.98-8.05 15.59-8.48L15.59-8.48L15.59-8.48Q16.20-8.91 16.20-9.76L16.20-9.76L16.20-9.76Q16.20-10.48 15.62-11.00L15.62-11.00L15.62-11.00Q15.03-11.52 13.59-12.06L13.59-12.06L9.72-13.41L9.72-13.41Q4.72-15.30 2.54-17.86L2.54-17.86L2.54-17.86Q0.36-20.43 0.36-24.79L0.36-24.79L0.36-24.79Q0.36-30.11 3.85-32.87L3.85-32.87L3.85-32.87Q7.33-35.64 15.48-35.64L15.48-35.64L15.48-35.64Q19.39-35.64 22.84-34.85L22.84-34.85L22.84-34.85Q26.28-34.06 28.39-32.76L28.39-32.76L28.39-24.70L19.39-24.70L19.39-24.70Q19.39-26.95 16.61-26.95L16.61-26.95L16.61-26.95Q15.25-26.95 14.69-26.62L14.69-26.62L14.69-26.62Q14.13-26.28 14.13-25.43L14.13-25.43L14.13-25.43Q14.13-24.66 14.78-24.21L14.78-24.21L14.78-24.21Q15.43-23.76 16.92-23.27L16.92-23.27L20.84-21.91L20.84-21.91Q25.61-20.29 27.79-17.71L27.79-17.71L27.79-17.71Q29.97-15.12 29.97-10.93L29.97-10.93L29.97-10.93Q29.97-5.22 26.12-2.29L26.12-2.29L26.12-2.29Q22.27 0.63 14.85 0.63L14.85 0.63ZM64.80-35.01L64.80-24.12L57.06-24.12L57.06-27.63L54.18-27.63L54.18-7.38L57.33-7.38L57.33 0L38.43 0L38.43-7.38L41.58-7.38L41.58-27.63L38.70-27.63L38.70-24.12L30.96-24.12L30.96-35.01L64.80-35.01ZM66.33 0L66.33-7.38L68.58-7.38L68.58-27.63L66.33-27.63L66.33-35.01L86.99-35.01L86.99-35.01Q92.79-35.01 95.85-32.63L95.85-32.63L95.85-32.63Q98.91-30.24 98.91-24.88L98.91-24.88L98.91-24.88Q98.91-21.87 97.70-19.66L97.70-19.66L97.70-19.66Q96.48-17.46 94.23-16.61L94.23-16.61L94.28-16.16L94.28-16.16Q98.59-15.48 98.59-10.84L98.59-10.84L98.59-7.38L100.71-7.38L100.71 0L86.45 0L86.45-10.57L86.45-10.57Q86.45-12.33 85.93-13.23L85.93-13.23L85.93-13.23Q85.41-14.13 84.31-14.45L84.31-14.45L84.31-14.45Q83.21-14.76 81.18-14.76L81.18-14.76L81.18-7.38L84.15-7.38L84.15 0L66.33 0ZM81.18-20.25L83.61-20.25L83.61-20.25Q84.92-20.25 85.57-20.95L85.57-20.95L85.57-20.95Q86.22-21.64 86.22-23.13L86.22-23.13L86.22-24.75L86.22-24.75Q86.22-26.23 85.57-26.93L85.57-26.93L85.57-26.93Q84.92-27.63 83.61-27.63L83.61-27.63L81.18-27.63L81.18-20.25ZM127.76-35.01L135.36-7.38L137.16-7.38L137.16 0L119.52 0L119.52-7.38L122.22-7.38L121.50-10.98L115.38-10.98L114.66-7.38L117.36-7.38L117.36 0L101.97 0L101.97-7.38L103.77-7.38L111.38-35.01L127.76-35.01ZM118.22-24.70L116.37-15.75L120.51-15.75L118.67-24.70L118.22-24.70ZM138.60 0L138.60-7.38L140.85-7.38L140.85-27.58L138.60-27.58L138.60-35.01L156.87-35.01L156.87-35.01Q164.38-35.01 168.82-30.89L168.82-30.89L168.82-30.89Q173.25-26.77 173.25-17.50L173.25-17.50L173.25-17.50Q173.25-8.23 168.82-4.12L168.82-4.12L168.82-4.12Q164.38 0 156.87 0L156.87 0L138.60 0ZM153.45-7.38L156.06-7.38L156.06-7.38Q157.59-7.38 158.35-8.19L158.35-8.19L158.35-8.19Q159.12-9 159.12-10.71L159.12-10.71L159.12-24.30L159.12-24.30Q159.12-27.63 156.06-27.63L156.06-27.63L153.45-27.63L153.45-7.38ZM198.85-35.01L206.46-7.38L208.26-7.38L208.26 0L190.62 0L190.62-7.38L193.32-7.38L192.60-10.98L186.48-10.98L185.76-7.38L188.46-7.38L188.46 0L173.07 0L173.07-7.38L174.87-7.38L182.47-35.01L198.85-35.01ZM189.31-24.70L187.47-15.75L191.61-15.75L189.76-24.70L189.31-24.70Z" fill="none" stroke="#28fb53" stroke-width="2.1"></path></g></g></g><style>text {
  font-size: 64px;
  font-family: Arial Black;
  dominant-baseline: central;
  text-anchor: middle;
}</style></svg>