<svg width="257.43125px" height="94.39999999999999px" xmlns="http://www.w3.org/2000/svg" viewBox="121.28437500000001 27.800000000000004 257.43125 94.39999999999999" style="background: rgb(43, 73, 73);" preserveAspectRatio="xMidYMid"><defs><filter id="editing-extrusion" x="-100%" y="-100%" width="300%" height="300%"><feFlood result="color1" flood-color="#ffe500"></feFlood><feConvolveMatrix order="3,3" divisor="1" kernelMatrix="1 0 0 0 1 0 0 0 1" in="SourceAlpha" result="extrude"></feConvolveMatrix><feComposite in="color1" in2="extrude" result="comp-extrude" operator="in"></feComposite><feOffset dx="1.5" dy="1.5" in="comp-extrude" result="offset-extrude"></feOffset><feMerge><feMergeNode in="offset-extrude"></feMergeNode><feMergeNode in="SourceGraphic"></feMergeNode></feMerge></filter></defs><g filter="url(#editing-extrusion)"><g transform="translate(163.62382903695107, 91.4950008392334)"><path d="M19.13-21.71L19.13-21.71L19.13-21.71Q19.83-23.12 19.83-24.44L19.83-24.44L19.83-24.44Q19.83-25.76 19.69-26.48L19.69-26.48L19.69-26.48Q19.55-27.21 19.22-27.78L19.22-27.78L19.22-27.78Q18.52-29.00 17.11-29.00L17.11-29.00L17.11-29.00Q15.37-29.00 13.96-27.73L13.96-27.73L13.96-27.73Q12.46-26.41 12.46-24.35L12.46-24.35L12.46-24.35Q12.46-23.03 13.37-22.02L13.37-22.02L13.37-22.02Q14.29-21.01 15.70-20.07L15.70-20.07L15.70-20.07Q17.11-19.13 18.71-18.19L18.71-18.19L18.71-18.19Q20.30-17.25 21.71-16.12L21.71-16.12L21.71-16.12Q24.96-13.54 24.96-10.06L24.96-10.06L24.96-10.06Q24.96-7.71 23.71-5.71L23.71-5.71L23.71-5.71Q22.47-3.71 20.40-2.26L20.40-2.26L20.40-2.26Q15.89 0.94 9.92 0.94L9.92 0.94L9.92 0.94Q5.08 0.94 2.58-0.63L2.58-0.63L2.58-0.63Q0.09-2.21 0.09-4.61L0.09-4.61L0.09-4.61Q0.09-8.88 3.43-9.96L3.43-9.96L3.43-9.96Q4.37-10.29 5.80-10.29L5.80-10.29L5.80-10.29Q7.24-10.29 8.88-9.68L8.88-9.68L8.88-9.68Q8.13-7.75 8.13-6.02L8.13-6.02L8.13-6.02Q8.13-2.26 10.81-2.26L10.81-2.26L10.81-2.26Q12.55-2.26 13.98-3.52L13.98-3.52L13.98-3.52Q15.42-4.79 15.42-6.23L15.42-6.23L15.42-6.23Q15.42-7.66 14.50-8.70L14.50-8.70L14.50-8.70Q13.58-9.73 12.22-10.55L12.22-10.55L12.22-10.55Q10.86-11.37 9.28-12.17L9.28-12.17L9.28-12.17Q7.71-12.97 6.34-14.10L6.34-14.10L6.34-14.10Q3.15-16.68 3.15-20.82L3.15-20.82L3.15-20.82Q3.15-23.50 4.46-25.59L4.46-25.59L4.46-25.59Q5.78-27.68 7.90-29.09L7.90-29.09L7.90-29.09Q12.13-31.96 17.32-31.96L17.32-31.96L17.32-31.96Q22.51-31.96 25.03-30.41L25.03-30.41L25.03-30.41Q27.54-28.86 27.54-26.23L27.54-26.23L27.54-26.23Q27.54-23.92 25.76-22.47L25.76-22.47L25.76-22.47Q24.20-21.24 22.32-21.24L22.32-21.24L22.32-21.24Q20.45-21.24 19.13-21.71ZM32.29-22.89L32.29-22.89L32.29-22.89Q30.69-24.11 30.69-26.72L30.69-26.72L30.69-26.72Q30.69-29.33 32.41-30.69L32.41-30.69L32.41-30.69Q34.12-32.05 37.08-32.05L37.08-32.05L37.08-32.05Q38.96-32.05 43.43-31.40L43.43-31.40L46.62-30.93L46.62-30.93Q48.22-30.74 49.89-30.74L49.89-30.74L49.89-30.74Q51.56-30.74 52.69-31.44L52.69-31.44L52.69-31.44Q54.38-29.94 54.38-27.78L54.38-27.78L54.38-27.78Q54.38-25.61 52.45-24.06L52.45-24.06L52.45-24.06Q50.48-22.42 47.94-22.42L47.94-22.42L47.94-22.42Q46.72-22.42 44.74-22.75L44.74-22.75L44.74-22.75Q42.44-15.51 42.44-10.48L42.44-10.48L42.44-10.48Q42.44-5.45 44.98-2.82L44.98-2.82L44.98-2.82Q43.80-0.70 42.06 0.12L42.06 0.12L42.06 0.12Q40.33 0.94 37.72 0.94L37.72 0.94L37.72 0.94Q35.11 0.94 33.49-0.49L33.49-0.49L33.49-0.49Q31.87-1.93 31.87-4.89L31.87-4.89L31.87-4.89Q31.87-8.32 33.75-13.96L33.75-13.96L33.75-13.96Q35.63-19.55 38.45-23.83L38.45-23.83L38.45-23.83Q37.08-23.97 35.67-23.97L35.67-23.97L35.67-23.97Q32.76-23.97 32.29-22.89ZM62.51 0L52.45 0L58.19-30.88L58.19-30.88Q62.84-31.40 69.63-31.40L69.63-31.40L69.63-31.40Q76.42-31.40 79.57-29.42L79.57-29.42L79.57-29.42Q82.72-27.45 82.72-23.48L82.72-23.48L82.72-23.48Q82.72-19.50 80.68-17.01L80.68-17.01L80.68-17.01Q78.63-14.52 75.11-13.72L75.11-13.72L75.11-13.72Q75.91-9.82 77.74-6.67L77.74-6.67L77.74-6.67Q79.43-3.71 81.40-2.77L81.40-2.77L81.40-2.77Q80.70-0.80 79.27 0.07L79.27 0.07L79.27 0.07Q77.83 0.94 75.79 0.94L75.79 0.94L75.79 0.94Q73.74 0.94 72.14-0.26L72.14-0.26L72.14-0.26Q70.55-1.46 69.28-3.67L69.28-3.67L69.28-3.67Q66.60-8.46 66.32-16.03L66.32-16.03L66.65-16.03L66.65-16.03Q70.12-16.12 71.86-17.93L71.86-17.93L71.86-17.93Q73.60-19.74 73.60-23.55L73.60-23.55L73.60-23.55Q73.60-28.29 69.61-28.48L69.61-28.48L68.57-28.48L68.57-28.48Q68.15-28.48 67.92-28.43L67.92-28.43L62.51 0ZM105.52 0.94L105.52 0.94L105.52 0.94Q99.50 0.94 98.94-7.61L98.94-7.61L90.85-7.61L90.85-7.61Q89.91-5.45 89.25-3.57L89.25-3.57L88.03 0L81.45 0L96.26-31.02L106.36-31.02L108.33-8.18L108.33-8.18Q108.81-3.24 110.69-1.79L110.69-1.79L110.69-1.79Q109.32 0.94 105.52 0.94ZM94.89-17.01L92.31-11.04L98.79-11.04L98.23-23.12L98.23-24.39L94.89-17.01ZM143.91-19.50L143.91-19.50L143.91-19.50Q143.91 0.52 122.20 0.52L122.20 0.52L122.20 0.52Q118.72 0.52 112.99-0.33L112.99-0.33L118.25-28.11L118.25-28.11Q118.63-29.99 118.86-31.07L118.86-31.07L118.86-31.07Q126.01-31.58 129.18-31.58L129.18-31.58L129.18-31.58Q132.35-31.58 135.27-30.93L135.27-30.93L135.27-30.93Q138.18-30.27 140.11-28.81L140.11-28.81L140.11-28.81Q143.91-25.94 143.91-19.50ZM134.23-21.24L134.23-21.24L134.23-21.24Q134.23-28.25 129.20-28.25L129.20-28.25L128.73-28.25L128.73-28.25Q128.50-28.25 128.26-28.20L128.26-28.20L123.42-2.96L123.42-2.96Q123.61-2.87 123.80-2.87L123.80-2.87L124.17-2.87L124.17-2.87Q125.91-2.87 127.72-3.95L127.72-3.95L127.72-3.95Q129.53-5.03 130.94-7.24L130.94-7.24L130.94-7.24Q134.23-12.36 134.23-21.24ZM166.61 0.94L166.61 0.94L166.61 0.94Q160.60 0.94 160.03-7.61L160.03-7.61L151.95-7.61L151.95-7.61Q151.01-5.45 150.35-3.57L150.35-3.57L149.13 0L142.55 0L157.36-31.02L167.46-31.02L169.44-8.18L169.44-8.18Q169.91-3.24 171.78-1.79L171.78-1.79L171.78-1.79Q170.42 0.94 166.61 0.94ZM155.99-17.01L153.41-11.04L159.89-11.04L159.33-23.12L159.33-24.39L155.99-17.01Z" fill="#28fb33"></path></g></g><style>text {
  font-size: 64px;
  font-family: Arial Black;
  dominant-baseline: central;
  text-anchor: middle;
}</style></svg>